{
    "asset" : {
        "generator" : "Khronos glTF Blender I/O v1.6.16",
        "version" : "2.0"
    },
    "scene" : 0,
    "scenes" : [
        {
            "name" : "Scene",
            "nodes" : [
                0,
                1,
                2,
                3,
                4,
                5
            ]
        }
    ],
    "nodes" : [
        {
            "name" : "hinge",
            "rotation" : [
                0.7071068286895752,
                0,
                0,
                0.7071068286895752
            ],
            "translation" : [
                0,
                -0.41291743516921997,
                -11.346131324768066
            ]
        },
        {
            "mesh" : 0,
            "name" : "back",
            "rotation" : [
                0.7071068286895752,
                0,
                0,
                0.7071067094802856
            ],
            "translation" : [
                0,
                -0.41291743516921997,
                -11.346131324768066
            ]
        },
        {
            "mesh" : 1,
            "name" : "screen",
            "rotation" : [
                0.7071068286895752,
                0,
                0,
                0.7071067094802856
            ],
            "translation" : [
                0,
                -0.41291743516921997,
                -11.346131324768066
            ]
        },
        {
            "mesh" : 2,
            "name" : "body"
        },
        {
            "mesh" : 3,
            "name" : "keyboard",
            "scale" : [
                3.6000001430511475,
                1,
                3.819999933242798
            ],
            "translation" : [
                6.450001239776611,
                0.20000000298023224,
                -0.5292501449584961
            ]
        },
        {
            "mesh" : 4,
            "name" : "touchbar",
            "scale" : [
                3.5999999046325684,
                1,
                3.5999999046325684
            ],
            "translation" : [
                2.2411346435546875e-05,
                0.20000000298023224,
                -9.298821449279785
            ]
        }
    ],
    "materials" : [
        {
            "name" : "blackmatte",
            "pbrMetallicRoughness" : {
                "baseColorFactor" : [
                    0,
                    0,
                    0,
                    1
                ]
            }
        },
        {
            "emissiveFactor" : [
                0.009800000116229057,
                0.009866669774055481,
                0.009999999776482582
            ],
            "name" : "aluminium.001",
            "normalTexture" : {
                "index" : 0
            },
            "pbrMetallicRoughness" : {
                "baseColorFactor" : [
                    0.4019779562950134,
                    0.4019777774810791,
                    0.4019778072834015,
                    1
                ],
                "roughnessFactor" : 0.44999998807907104
            }
        },
        {
            "emissiveFactor" : [
                1,
                1,
                1
            ],
            "name" : "matte",
            "pbrMetallicRoughness" : {
                "metallicFactor" : 0.800000011920929,
                "roughnessFactor" : 0.10000000149011612
            }
        },
        {
            "doubleSided" : true,
            "name" : "keys.001",
            "pbrMetallicRoughness" : {
                "baseColorFactor" : [
                    0,
                    0,
                    0,
                    1
                ],
                "metallicFactor" : 0.6766917705535889,
                "roughnessFactor" : 0.8270676732063293
            }
        },
        {
            "doubleSided" : true,
            "name" : "touchbar.001",
            "pbrMetallicRoughness" : {
                "baseColorFactor" : [
                    0,
                    0,
                    0,
                    1
                ],
                "metallicFactor" : 0,
                "roughnessFactor" : 0.18409091234207153
            }
        }
    ],
    "meshes" : [
        {
            "name" : "back",
            "primitives" : [
                {
                    "attributes" : {
                        "POSITION" : 0,
                        "NORMAL" : 1,
                        "TEXCOORD_0" : 2,
                        "TEXCOORD_1" : 3
                    },
                    "indices" : 4,
                    "material" : 0
                },
                {
                    "attributes" : {
                        "POSITION" : 5,
                        "NORMAL" : 6,
                        "TEXCOORD_0" : 7,
                        "TEXCOORD_1" : 8
                    },
                    "indices" : 9,
                    "material" : 1
                }
            ]
        },
        {
            "name" : "screen",
            "primitives" : [
                {
                    "attributes" : {
                        "POSITION" : 10,
                        "NORMAL" : 11,
                        "TEXCOORD_0" : 12,
                        "TEXCOORD_1" : 13
                    },
                    "indices" : 14,
                    "material" : 2
                }
            ]
        },
        {
            "name" : "body",
            "primitives" : [
                {
                    "attributes" : {
                        "POSITION" : 15,
                        "NORMAL" : 16,
                        "TEXCOORD_0" : 17,
                        "TEXCOORD_1" : 18,
                        "TEXCOORD_2" : 19,
                        "TEXCOORD_3" : 20,
                        "TEXCOORD_4" : 21
                    },
                    "indices" : 22,
                    "material" : 1
                },
                {
                    "attributes" : {
                        "POSITION" : 23,
                        "NORMAL" : 24,
                        "TEXCOORD_0" : 25,
                        "TEXCOORD_1" : 26,
                        "TEXCOORD_2" : 27,
                        "TEXCOORD_3" : 28,
                        "TEXCOORD_4" : 29
                    },
                    "indices" : 30,
                    "material" : 0
                }
            ]
        },
        {
            "name" : "Cube.004",
            "primitives" : [
                {
                    "attributes" : {
                        "POSITION" : 31,
                        "NORMAL" : 32,
                        "TEXCOORD_0" : 33,
                        "TEXCOORD_1" : 34
                    },
                    "indices" : 35,
                    "material" : 3
                }
            ]
        },
        {
            "name" : "Cube.006",
            "primitives" : [
                {
                    "attributes" : {
                        "POSITION" : 36,
                        "NORMAL" : 37,
                        "TEXCOORD_0" : 38
                    },
                    "indices" : 39,
                    "material" : 4
                }
            ]
        }
    ],
    "textures" : [
        {
            "sampler" : 0,
            "source" : 0
        }
    ],
    "images" : [
        {
            "bufferView" : 10,
            "mimeType" : "image/png",
            "name" : "zqeFZcIteZtOShc_normal"
        }
    ],
    "accessors" : [
        {
            "bufferView" : 0,
            "componentType" : 5126,
            "count" : 3280,
            "max" : [
                15.652989387512207,
                0.23639541864395142,
                0.2521781921386719
            ],
            "min" : [
                -15.637700080871582,
                -0.634913444519043,
                -21.790407180786133
            ],
            "type" : "VEC3"
        },
        {
            "bufferView" : 1,
            "componentType" : 5126,
            "count" : 3280,
            "type" : "VEC3"
        },
        {
            "bufferView" : 2,
            "componentType" : 5126,
            "count" : 3280,
            "type" : "VEC2"
        },
        {
            "bufferView" : 3,
            "componentType" : 5126,
            "count" : 3280,
            "type" : "VEC2"
        },
        {
            "bufferView" : 4,
            "componentType" : 5123,
            "count" : 10782,
            "type" : "SCALAR"
        },
        {
            "bufferView" : 5,
            "componentType" : 5126,
            "count" : 2410,
            "max" : [
                15.733457565307617,
                0.22600853443145752,
                0.2548351287841797
            ],
            "min" : [
                -15.718168258666992,
                -0.8802528381347656,
                -21.870393753051758
            ],
            "type" : "VEC3"
        },
        {
            "bufferView" : 6,
            "componentType" : 5126,
            "count" : 2410,
            "type" : "VEC3"
        },
        {
            "bufferView" : 7,
            "componentType" : 5126,
            "count" : 2410,
            "type" : "VEC2"
        },
        {
            "bufferView" : 8,
            "componentType" : 5126,
            "count" : 2410,
            "type" : "VEC2"
        },
        {
            "bufferView" : 9,
            "componentType" : 5123,
            "count" : 8472,
            "type" : "SCALAR"
        },
        {
            "bufferView" : 11,
            "componentType" : 5126,
            "count" : 252,
            "max" : [
                15.180465698242188,
                -0.44138938188552856,
                -1.723379135131836
            ],
            "min" : [
                -15.165176391601562,
                -0.48586273193359375,
                -21.32129669189453
            ],
            "type" : "VEC3"
        },
        {
            "bufferView" : 12,
            "componentType" : 5126,
            "count" : 252,
            "type" : "VEC3"
        },
        {
            "bufferView" : 13,
            "componentType" : 5126,
            "count" : 252,
            "type" : "VEC2"
        },
        {
            "bufferView" : 14,
            "componentType" : 5126,
            "count" : 252,
            "type" : "VEC2"
        },
        {
            "bufferView" : 15,
            "componentType" : 5123,
            "count" : 264,
            "type" : "SCALAR"
        },
        {
            "bufferView" : 16,
            "componentType" : 5126,
            "count" : 9142,
            "max" : [
                15.733640670776367,
                0.01728367805480957,
                10.429430961608887
            ],
            "min" : [
                -15.718351364135742,
                -1.1811801195144653,
                -11.603865623474121
            ],
            "type" : "VEC3"
        },
        {
            "bufferView" : 17,
            "componentType" : 5126,
            "count" : 9142,
            "type" : "VEC3"
        },
        {
            "bufferView" : 18,
            "componentType" : 5126,
            "count" : 9142,
            "type" : "VEC2"
        },
        {
            "bufferView" : 19,
            "componentType" : 5126,
            "count" : 9142,
            "type" : "VEC2"
        },
        {
            "bufferView" : 20,
            "componentType" : 5126,
            "count" : 9142,
            "type" : "VEC2"
        },
        {
            "bufferView" : 21,
            "componentType" : 5126,
            "count" : 9142,
            "type" : "VEC2"
        },
        {
            "bufferView" : 22,
            "componentType" : 5126,
            "count" : 9142,
            "type" : "VEC2"
        },
        {
            "bufferView" : 23,
            "componentType" : 5123,
            "count" : 28590,
            "type" : "SCALAR"
        },
        {
            "bufferView" : 24,
            "componentType" : 5126,
            "count" : 21641,
            "max" : [
                15.733906745910645,
                -0.08782970905303955,
                10.102577209472656
            ],
            "min" : [
                -15.727189064025879,
                -1.271270990371704,
                -11.522123336791992
            ],
            "type" : "VEC3"
        },
        {
            "bufferView" : 25,
            "componentType" : 5126,
            "count" : 21641,
            "type" : "VEC3"
        },
        {
            "bufferView" : 26,
            "componentType" : 5126,
            "count" : 21641,
            "type" : "VEC2"
        },
        {
            "bufferView" : 27,
            "componentType" : 5126,
            "count" : 21641,
            "type" : "VEC2"
        },
        {
            "bufferView" : 28,
            "componentType" : 5126,
            "count" : 21641,
            "type" : "VEC2"
        },
        {
            "bufferView" : 29,
            "componentType" : 5126,
            "count" : 21641,
            "type" : "VEC2"
        },
        {
            "bufferView" : 30,
            "componentType" : 5126,
            "count" : 21641,
            "type" : "VEC2"
        },
        {
            "bufferView" : 31,
            "componentType" : 5123,
            "count" : 39753,
            "type" : "SCALAR"
        },
        {
            "bufferView" : 32,
            "componentType" : 5126,
            "count" : 3548,
            "max" : [
                1.6524066925048828,
                0.035113535821437836,
                0.2080223560333252
            ],
            "min" : [
                -5.234484672546387,
                -0.03217411786317825,
                -2.0629360675811768
            ],
            "type" : "VEC3"
        },
        {
            "bufferView" : 33,
            "componentType" : 5126,
            "count" : 3548,
            "type" : "VEC3"
        },
        {
            "bufferView" : 34,
            "componentType" : 5126,
            "count" : 3548,
            "type" : "VEC2"
        },
        {
            "bufferView" : 35,
            "componentType" : 5126,
            "count" : 3548,
            "type" : "VEC2"
        },
        {
            "bufferView" : 36,
            "componentType" : 5123,
            "count" : 6498,
            "type" : "SCALAR"
        },
        {
            "bufferView" : 37,
            "componentType" : 5126,
            "count" : 60,
            "max" : [
                3.4431190490722656,
                0.0286430474370718,
                0.13550163805484772
            ],
            "min" : [
                -3.4431190490722656,
                -0.028546033427119255,
                -0.13698752224445343
            ],
            "type" : "VEC3"
        },
        {
            "bufferView" : 38,
            "componentType" : 5126,
            "count" : 60,
            "type" : "VEC3"
        },
        {
            "bufferView" : 39,
            "componentType" : 5126,
            "count" : 60,
            "type" : "VEC2"
        },
        {
            "bufferView" : 40,
            "componentType" : 5123,
            "count" : 132,
            "type" : "SCALAR"
        }
    ],
    "bufferViews" : [
        {
            "buffer" : 0,
            "byteLength" : 39360,
            "byteOffset" : 0
        },
        {
            "buffer" : 0,
            "byteLength" : 39360,
            "byteOffset" : 39360
        },
        {
            "buffer" : 0,
            "byteLength" : 26240,
            "byteOffset" : 78720
        },
        {
            "buffer" : 0,
            "byteLength" : 26240,
            "byteOffset" : 104960
        },
        {
            "buffer" : 0,
            "byteLength" : 21564,
            "byteOffset" : 131200
        },
        {
            "buffer" : 0,
            "byteLength" : 28920,
            "byteOffset" : 152764
        },
        {
            "buffer" : 0,
            "byteLength" : 28920,
            "byteOffset" : 181684
        },
        {
            "buffer" : 0,
            "byteLength" : 19280,
            "byteOffset" : 210604
        },
        {
            "buffer" : 0,
            "byteLength" : 19280,
            "byteOffset" : 229884
        },
        {
            "buffer" : 0,
            "byteLength" : 16944,
            "byteOffset" : 249164
        },
        {
            "buffer" : 0,
            "byteLength" : 114293,
            "byteOffset" : 266108
        },
        {
            "buffer" : 0,
            "byteLength" : 3024,
            "byteOffset" : 380404
        },
        {
            "buffer" : 0,
            "byteLength" : 3024,
            "byteOffset" : 383428
        },
        {
            "buffer" : 0,
            "byteLength" : 2016,
            "byteOffset" : 386452
        },
        {
            "buffer" : 0,
            "byteLength" : 2016,
            "byteOffset" : 388468
        },
        {
            "buffer" : 0,
            "byteLength" : 528,
            "byteOffset" : 390484
        },
        {
            "buffer" : 0,
            "byteLength" : 109704,
            "byteOffset" : 391012
        },
        {
            "buffer" : 0,
            "byteLength" : 109704,
            "byteOffset" : 500716
        },
        {
            "buffer" : 0,
            "byteLength" : 73136,
            "byteOffset" : 610420
        },
        {
            "buffer" : 0,
            "byteLength" : 73136,
            "byteOffset" : 683556
        },
        {
            "buffer" : 0,
            "byteLength" : 73136,
            "byteOffset" : 756692
        },
        {
            "buffer" : 0,
            "byteLength" : 73136,
            "byteOffset" : 829828
        },
        {
            "buffer" : 0,
            "byteLength" : 73136,
            "byteOffset" : 902964
        },
        {
            "buffer" : 0,
            "byteLength" : 57180,
            "byteOffset" : 976100
        },
        {
            "buffer" : 0,
            "byteLength" : 259692,
            "byteOffset" : 1033280
        },
        {
            "buffer" : 0,
            "byteLength" : 259692,
            "byteOffset" : 1292972
        },
        {
            "buffer" : 0,
            "byteLength" : 173128,
            "byteOffset" : 1552664
        },
        {
            "buffer" : 0,
            "byteLength" : 173128,
            "byteOffset" : 1725792
        },
        {
            "buffer" : 0,
            "byteLength" : 173128,
            "byteOffset" : 1898920
        },
        {
            "buffer" : 0,
            "byteLength" : 173128,
            "byteOffset" : 2072048
        },
        {
            "buffer" : 0,
            "byteLength" : 173128,
            "byteOffset" : 2245176
        },
        {
            "buffer" : 0,
            "byteLength" : 79506,
            "byteOffset" : 2418304
        },
        {
            "buffer" : 0,
            "byteLength" : 42576,
            "byteOffset" : 2497812
        },
        {
            "buffer" : 0,
            "byteLength" : 42576,
            "byteOffset" : 2540388
        },
        {
            "buffer" : 0,
            "byteLength" : 28384,
            "byteOffset" : 2582964
        },
        {
            "buffer" : 0,
            "byteLength" : 28384,
            "byteOffset" : 2611348
        },
        {
            "buffer" : 0,
            "byteLength" : 12996,
            "byteOffset" : 2639732
        },
        {
            "buffer" : 0,
            "byteLength" : 720,
            "byteOffset" : 2652728
        },
        {
            "buffer" : 0,
            "byteLength" : 720,
            "byteOffset" : 2653448
        },
        {
            "buffer" : 0,
            "byteLength" : 480,
            "byteOffset" : 2654168
        },
        {
            "buffer" : 0,
            "byteLength" : 264,
            "byteOffset" : 2654648
        }
    ],
    "samplers" : [
        {
            "magFilter" : 9729,
            "minFilter" : 9987
        }
    ],
    "buffers" : [
        {
            "byteLength" : 2654912,
            "uri" : "data:application/octet-stream;base64,"
        }
    ]
}
